<svg id="Layer_2" data-name="Layer 2" xmlns="http://www.w3.org/2000/svg" viewBox="0 0 500 500"><defs><style>.cls-1{fill:#fff;}</style></defs><title>Artboard 1logo_white</title><rect class="cls-1" x="102.6" y="23.96" width="61.91" height="233.62" transform="translate(88.28 -47.92) rotate(30)"/><path class="cls-1" d="M446.54,341.08,379.38,193.57l53.34-92.39-53.62-31-31.24,54.11L316.35,55.87c-5.36-8.25-19.13-14.11-35.26-14.11-18.56,0-34,7.77-37.11,18L87.72,330.42l53.62,30.95L279.11,122.75l30.71,67.46-147,254.7,53.62,31,40.09-69.44H422c16.39,0,29.67-18.41,29.67-41.13C451.66,356.34,446.54,341.08,446.54,341.08ZM285.47,356.22l55.88-96.78,44.06,96.78Z"/></svg>